# xmcd
#
# Track frame offsets: 
#        150
#        19487
#        36261
#        56014
#        73985
#        108755
#        134865
#        167263
#        183284
#
# Disc length: 2788 seconds
#
# Revision: 0
# Processed by: cddbd v1.5.2PL0 Copyright (c) Steve Scherf et al.
# Submitted via: ExactAudioCopy v0.99pb3
#
DISCID=800ae209
DTITLE=Ken Vandermark, Pandelis Karayorgis - Foreground Music
DYEAR=2006
DGENRE=
TTITLE0=Lifgatowy
TTITLE1=United Forces of One
TTITLE2=JCT
TTITLE3=The Clincher
TTITLE4=Dreamless
TTITLE5=Betwixt
TTITLE6=Title Without Year
TTITLE7=Of Two Minds
TTITLE8=Absolute Camel 
EXTD=
EXTT0=
EXTT1=
EXTT2=
EXTT3=
EXTT4=
EXTT5=
EXTT6=
EXTT7=
EXTT8=
PLAYORDER=
